<?xml version="1.0" encoding="utf-8"?>
<!-- Generator: Adobe Illustrator 27.8.0, SVG Export Plug-In . SVG Version: 6.00 Build 0)  -->
<svg version="1.1"
	 id="svg3039" xmlns:svg="http://www.w3.org/2000/svg" xmlns:rdf="http://www.w3.org/1999/02/22-rdf-syntax-ns#" xmlns:dc="http://purl.org/dc/elements/1.1/" xmlns:cc="http://creativecommons.org/ns#"
	 xmlns="http://www.w3.org/2000/svg" xmlns:xlink="http://www.w3.org/1999/xlink" x="0px" y="0px" viewBox="0 0 1075.2 244.8"
	 style="enable-background:new 0 0 1075.2 244.8;" xml:space="preserve">
<style type="text/css">
	.st0{fill:#FFFFFF;}
	.st1{font-family:'OpenSans-MediumItalic';}
	.st2{font-size:104.0964px;}
</style>
<path id="path3049" class="st0" d="M1.9,54.5C3,57.1,5,62.4,6.5,66.2s2.1,5.8,4,10s2.6,10.1-1.6,22.5c-4.1,12.4-4.2,12.5-4.6,25.7
	c-0.4,13.2,0.4,17.5,5.4,28.3s2.1,18.6-4.4,33s-3.2,10.8,2,16s5.6,5.4,6.9,4.3c1.3-1.1,4-7.3,9.2-21.7c5.2-14.4,5-14.4,7.1-15.2
	c2.1-0.8,7.2,6.1,16,20.2s12.3,19.5,14.2,22.5c1.9,3,1.1,1.6,5.7,9c4.6,7.4,13.5,20.8,15,22c1.5,1.2,2.3,1.5,12.4,1.2
	c10.1-0.3,14-2.2,12.2-5.4s-11.4-15-19-23.3c-7.6-8.3-36.5-41.3-38.1-44c-1.7-2.7,0.8-4.6,3.1-3.4s2.4,1.3,2.9,1.8s38,32,49.5,41.6
	s8.2,6.9,12.4,10.4c4.2,3.5,6.5,5.5,9.7,8.2c3.2,2.7,4.6,5.2,13.7,0.5s13.6-7.6,13.6-9c0-1.4-23.8-17.2-36.5-25
	c-12.7-7.8-12-7.4-17.5-11s-21.3-13.6-31.5-20S57,158.6,57,155.7c0-2.9,11.6,2,27,10.1s20.6,10.8,30.5,15.9s22.3,11.6,27.5,14.3
	s16,8.3,18.4,9.5s5.8,5.1,8.9,4.5s4.5-5,6.3-6.9c1.7-1.9,6-6.4,7.5-9.1s-11.2-9.9-27.6-15.8s-19.2-6.9-28-10s-20.7-7.4-26.5-9.5
	s-11.8-4.2-13.3-4.8s-4-1.4-5.5-1.8s-3.2-0.9-3.7-1.3c-0.5-0.3-2.4-1.1-7.9-3.1c-5.5-2-9.6-5.4-7.9-7.1c1.7-1.7,5.2-0.6,27.8,5.6
	c22.6,6.2,30.7,8.4,35.5,9.6s10.9,2.7,25.5,6.8c14.6,4.1,41.5,11.4,42.9,10.8c1.4-0.5,6.1-10.8,7-15.9c0.9-5.1-9.4-5.8-29.4-8.9
	c-20-3.1-14.4-2.2-15.5-2.4s-5.6-0.9-15.5-2.4c-9.9-1.5-30.8-4.8-57.5-9.1s-19.1-4.5-17.7-6.7c1.4-2.3,24.1,0.2,62.7,2.7
	s52.1,3.4,60.5,4s25.3,4.1,30.5,2s0.2-0.2,2.2-2.4c2-2.2,3.2-19.2,0.5-22.4c-2.7-3.2-6.8-1.7-23.7-0.6s-27.4,1.9-34,2.5
	c-6.6,0.6-23,1.7-36.5,2.6s-26.5,1.7-29,1.9s-9.4,0.7-15.5,1s-11.1,0.6-13.1,1c-2,0.4-6.3-2.1-4.8-3.5s10-3.2,20.9-5
	s13.1-2.2,14.5-2.5s8.1-1.5,15-2.6s17.4-2.9,23.5-3.9s17.5-3,25.5-4.3s19.2-3.2,25-4.2c5.8-1,10.7-1.9,11.7-2.7s-0.6-7.7-3.6-14
	s-5.3-6.4-9.3-5.4c-4.1,1-18.6,5-24.2,6.5c-5.6,1.6-11.9,3.3-18,5s-13.2,3.7-16,4.5s-9,2.5-24,6.5c-15,4-28,7.7-34.9,9.7
	c-6.8,2.1-7.6,0.8-7.6-1s5.8-4.2,9-5.1s3.8-1.3,5.5-2.1c1.6-0.7,13.8-5.2,27-9.9s24.9-9,26-9.5s7.1-2.8,24.5-9
	c17.4-6.3,27-10.4,27-12S172.3,39,170.9,38.1c-1.4-0.9-14.6,5.3-41.9,18.1S87.6,76.6,75,83.6c-12.6,7.1-16.2,8.3-17,7.1
	c-0.7-1.2-0.7-1.7-0.4-2.3C58,87.9,87.7,68.1,94,64.2c6.3-3.9,6-3.8,9-5.7c3-1.9,2.7-1.8,23-14.3s27.7-21.1,21.1-24.4
	c-6.7-3.4-9.7-4.5-11.1-5c-1.4-0.5-2.4-2.4-5-2s-6,4.8-8.3,6.7s-8.5,7-8.8,7.3s-7.2,6.1-15.5,12.9s-17.2,14.2-20,16.5
	s-8.1,6.8-16.2,13.4S49,79.4,49,78.1c0-1.3,6.1-9.2,8.2-11.6s3.7-4.3,5.3-6.4c1.6-2.1,3-3.8,17-21.2s26.7-33.1,26.2-34.7
	s-7.6-3.7-16-3.3s-6.9-2.1-20.1,17.3S46.7,51.6,45.7,52.7c-1,1.2-4.4,6.1-8.2,11.8S30,74.7,29.3,74.7c-0.7,0-1.9-1.5-2.7-3.2
	c-0.7-1.8-1.6-4.1-6.1-15.5S13.6,40,9.8,41.9C6,43.7,0,48.8,0,49.4S0.9,51.9,1.9,54.5L1.9,54.5z"/>
<text transform="matrix(1 0 0 1 297.9652 89.2036)"><tspan x="0" y="0" class="st0 st1 st2">From St. James </tspan><tspan x="0" y="124.9" class="st0 st1 st2">to Santiago</tspan></text>
</svg>
